<?xml version="1.0" encoding="utf-8"?>
<!-- Generator: Adobe Illustrator 23.1.1, SVG Export Plug-In . SVG Version: 6.00 Build 0)  -->
<svg version="1.1" id="Layer_1" xmlns="http://www.w3.org/2000/svg" xmlns:xlink="http://www.w3.org/1999/xlink" x="0px" y="0px"
	 viewBox="0 0 19.9 23" style="enable-background:new 0 0 19.9 23;" xml:space="preserve">
<style type="text/css">
	.st0{fill:#FFFFFF;}
</style>
<path id="Combined-Shape" class="st0" d="M17.6,19.6l0.8,0.8c0.9,1,0.2,2.5-1.1,2.5h-2.6c-0.6,0-1.2-0.4-1.4-0.9l-0.9-2.2h-5L6.5,22
	c-0.2,0.6-0.8,0.9-1.4,0.9H2.5c-1.3,0-2-1.6-1.1-2.5l0.8-0.8c-0.5-0.2-0.9-0.6-1.1-1c-0.4-0.7-0.8-1.8-1-3.4c0-0.1-0.1-0.4-0.1-0.6
	C-0.1,12.4,0,9,1,4.1c0.3-1.8,1.3-2.7,3.4-3.3C6,0.3,7.6,0.1,9.8,0H10h0.2c2.2,0,3.8,0.3,5.4,0.8c2.1,0.7,3,1.6,3.4,3.3
	c0.9,4.9,1.1,8.3,0.8,10.5c0,0.3-0.1,0.5-0.1,0.6c-0.3,1.6-0.6,2.7-1.1,3.4C18.5,19,18.1,19.4,17.6,19.6z M17.5,4.4
	c-0.2-1.1-0.6-1.6-2.4-2.2c-1.3-0.4-2.8-0.7-5-0.7H10H9.8c-2.2,0-3.7,0.3-5,0.7C3.1,2.7,2.7,3.3,2.4,4.4C1,12.2,1.7,14.9,1.7,14.9
	c0.3,1.8,0.7,2.7,0.9,3C2.7,18,3,18.4,3.4,18.4h13.3c0.3-0.1,0.6-0.4,0.7-0.5c0.2-0.3,0.6-1.2,0.9-3C18.3,14.9,19,12.2,17.5,4.4z
	 M2.6,12.9h14.8c0,0.5-0.1,1.9-0.9,2.5c0,0-0.1,0-0.3,0H3.8c-0.2,0-0.3,0-0.3,0C2.7,14.8,2.6,13.4,2.6,12.9z M17.4,12.7H2.6
	c0-1.4,0.1-3.8,0.8-7.6c0.2-1,0.5-1.5,2.1-1.8c0.2,0,0.9-0.1,1.3-0.1h6.4c0.4,0,1.1,0.1,1.3,0.1c1.5,0.3,1.8,0.9,2,1.8
	C17.2,8.9,17.4,11.3,17.4,12.7z M15.9,10.7c0,0-0.1-1.7-0.3-2.8c-0.1-1.1-0.4-2.8-0.4-2.8c0-0.3-0.3-0.4-0.4-0.4h-2.3
	c-0.2,0-0.4,0.1-0.4,0.3v5.5c0,0.3,0.1,0.5,0.4,0.5h3.1C15.9,11.1,15.9,10.9,15.9,10.7z M7.8,10.6V5.1c0-0.3-0.2-0.3-0.4-0.3H5.1
	C5,4.8,4.7,4.9,4.7,5.2c0,0-0.3,1.6-0.4,2.8C4.1,9.1,4,10.7,4,10.7c0,0.2,0.1,0.4,0.4,0.4h3.1C7.7,11.1,7.8,10.9,7.8,10.6z
	 M15.9,14.6v-0.9c0-0.1-0.1-0.2-0.2-0.2H13c-0.1,0-0.2,0.1-0.2,0.2v0.9c0,0.1,0.1,0.2,0.2,0.2h2.7C15.9,14.8,15.9,14.7,15.9,14.6z
	 M7.1,14.6v-0.9c0-0.1-0.1-0.2-0.2-0.2H4.2c-0.1,0-0.2,0.1-0.2,0.2v0.9c0,0.1,0.1,0.2,0.2,0.2h2.7C7,14.8,7.1,14.7,7.1,14.6z
	 M5.1,18.9l-2.5,2.6h2.6l1-2.6H5.1z M14.9,18.9h-1.2l1,2.6h2.6L14.9,18.9z M9.5,4.5V12h1V4.5H9.5z"/>
</svg>
