<?xml version="1.0" encoding="utf-8"?>
<!-- Generator: Adobe Illustrator 23.1.1, SVG Export Plug-In . SVG Version: 6.00 Build 0)  -->
<svg version="1.1" id="Layer_1" xmlns="http://www.w3.org/2000/svg" xmlns:xlink="http://www.w3.org/1999/xlink" x="0px" y="0px"
	 viewBox="0 0 433.3 512" style="enable-background:new 0 0 433.3 512;" xml:space="preserve">
<style type="text/css">
	.st0{fill:#FFFFFF;}
</style>
<g>
	<path class="st0" d="M153,84.2H92.9c-3.3,0-9.5,1.4-10.7,9.1c0,0-7.6,42.2-11.4,71.1c-3.6,28.9-7.4,71.9-7.4,71.9
		c0,5.5,2.5,9,9.6,9h78.2c8.3,0,11-4.1,11-11.9V92.9C162.3,86.2,157.6,84.2,153,84.2"/>
	<path class="st0" d="M408.9,74.2c-5.3-27.8-16.4-41.9-60.2-55.5C315,8.2,277.1,1.3,221.4,0h-4.8h-4.7
		c-55.7,1.3-93.7,8.2-127.3,18.8C41,32.3,29.8,46.4,24.5,74.2C-13.5,273.3,4,343.6,4,343.6c7.4,45.4,18.2,68.3,22.5,76
		c1.8,2.9,10.6,11.6,19.6,11.6h341.2c9,0,17.7-8.7,19.4-11.6c4.4-7.7,15-30.6,22.6-76C429.3,343.6,446.8,273.3,408.9,74.2z
		 M382.5,360.4c-0.6,0.4-2,1.2-7.4,1.3H58.2c-5.4-0.1-6.8-0.9-7.4-1.3c-24.8-18.4-23.2-64.6-23.2-64.6h378.2
		C405.7,295.9,407.3,342.1,382.5,360.4z M405.6,291.3H27.7c-1-35.4,1.9-98.4,21.1-199.1c4.6-24.3,13.5-37.9,52.5-46.7
		c3.9-1,22.1-2.5,33-2.4h164.7c10.6-0.1,28.9,1.4,33,2.4c38.9,8.8,47.8,22.4,52.5,46.7C403.7,192.9,406.7,256,405.6,291.3z"/>
	<path class="st0" d="M137.1,343.4c2.9,0,5.3-2.3,5.3-5.3v-21.8c0-2.8-2.4-5.1-5.3-5.1H68.7c-2.8,0-5.2,2.3-5.2,5.1v21.8
		c0,3,2.4,5.3,5.2,5.3H137.1"/>
	<path class="st0" d="M280.4,84.2h60.1c3.3,0,9.3,1.4,10.6,9.1c0,0,7.7,42.2,11.3,71.1c3.7,28.9,7.4,71.9,7.4,71.9
		c0,5.5-2.4,9-9.4,9H282c-8.4,0-11-4.1-11-11.9V92.9C271,86.2,275.7,84.2,280.4,84.2"/>
	<path class="st0" d="M296.2,343.4c-3,0-5.1-2.3-5.1-5.3v-21.8c0-2.8,2.2-5.1,5.1-5.1h68.3c2.9,0,5.3,2.3,5.3,5.1v21.8
		c0,3-2.4,5.3-5.3,5.3H296.2"/>
	<polygon class="st0" points="406,512 338.3,512 312,446 342.1,446 	"/>
	<polygon class="st0" points="94.9,512 27.3,512 91.2,446 121.3,446 	"/>
</g>
</svg>
