<?xml version="1.0" encoding="utf-8"?>
<!-- Generator: Adobe Illustrator 23.1.1, SVG Export Plug-In . SVG Version: 6.00 Build 0)  -->
<svg version="1.1" id="Layer_1" focusable="false" xmlns="http://www.w3.org/2000/svg" xmlns:xlink="http://www.w3.org/1999/xlink"
	 x="0px" y="0px" viewBox="0 0 384 512" style="enable-background:new 0 0 384 512;" xml:space="preserve">
<style type="text/css">
	.icon--hurricane .st0{fill:#1565C0;}
</style>
<g class="icon--hurricane">
<path class="st0" d="M176,96l24.5-74.8c3.7-11.2-5.6-22.5-17.4-21.1C80,12.4,0,101.6,0,208c0,114.9,93.1,208,208,208l-24.5,74.8
	c-3.7,11.2,5.6,22.5,17.4,21.1C304,499.6,384,410.4,384,304C384,189.1,290.9,96,176,96z M192,352c-53,0-96-43-96-96s43-96,96-96
	s96,43,96,96S245,352,192,352z M192,224c-17.7,0-32,14.3-32,32s14.3,32,32,32s32-14.3,32-32S209.7,224,192,224z"/>
</g>
</svg>
