<?xml version="1.0" encoding="utf-8"?>
<!-- Generator: Adobe Illustrator 23.1.1, SVG Export Plug-In . SVG Version: 6.00 Build 0)  -->
<svg version="1.1" id="Layer_1" focusable="false" xmlns="http://www.w3.org/2000/svg" xmlns:xlink="http://www.w3.org/1999/xlink"
	 x="0px" y="0px" viewBox="0 0 351.9 512" style="enable-background:new 0 0 351.9 512;" xml:space="preserve">
<style type="text/css">
	.icon--question .st0{fill:#212121;}
</style>
<g class="icon--question">
<path class="st0" d="M176.4,0C96.6,0,44.9,32.7,4.3,91c-7.4,10.6-5.1,25.1,5.2,32.9l43.1,32.7c10.4,7.9,25.1,6,33.3-4.1
	c25-31.4,43.6-49.4,82.8-49.4c30.8,0,68.8,19.8,68.8,49.6c0,22.6-18.6,34.1-49,51.2c-35.4,19.9-82.3,44.6-82.3,106.4v9.8
	c0,13.3,10.7,24,24,24h72.5c13.3,0,24-10.7,24-24v-5.8c0-42.9,125.3-44.6,125.3-160.6C351.9,66.3,261.3,0,176.4,0z M166.4,373.5
	c-38.2,0-69.3,31.1-69.3,69.3c0,38.2,31.1,69.3,69.3,69.3s69.3-31.1,69.3-69.3S204.6,373.5,166.4,373.5z"/>
</g>
</svg>
