<?xml version="1.0" encoding="utf-8"?>
<!-- Generator: Adobe Illustrator 23.1.1, SVG Export Plug-In . SVG Version: 6.00 Build 0)  -->
<svg version="1.1" id="Layer_1" focusable="false" xmlns="http://www.w3.org/2000/svg" xmlns:xlink="http://www.w3.org/1999/xlink"
	 x="0px" y="0px" viewBox="0 0 512 512" style="enable-background:new 0 0 512 512;" xml:space="preserve">
<style type="text/css">
	.icon--stop .st0{fill:#C62828;}
	.icon--stop .st1{fill:#FFFFFF;}
</style>
<g class="icon--stop">
	<path class="st0" d="M256,0C114.6,0,0,114.6,0,256s114.6,256,256,256s256-114.6,256-256S397.4,0,256,0z M437.7,305.5H74.3
		c-9.1,0-16.5-7.4-16.5-16.5V223c0-9.1,7.4-16.5,16.5-16.5h363.4c9.1,0,16.5,7.4,16.5,16.5V289C454.2,298.1,446.8,305.5,437.7,305.5
		z"/>
	<path class="st1" d="M57.8,223c0-9.1,7.4-16.5,16.5-16.5h363.4c9.1,0,16.5,7.4,16.5,16.5V289c0,9.1-7.4,16.5-16.5,16.5H74.3
		c-9.1,0-16.5-7.4-16.5-16.5V223"/>
</g>
</svg>
