<?xml version="1.0" encoding="utf-8"?>
<!-- Generator: Adobe Illustrator 23.1.1, SVG Export Plug-In . SVG Version: 6.00 Build 0)  -->
<svg version="1.1" id="Layer_1" focusable="false" xmlns="http://www.w3.org/2000/svg" xmlns:xlink="http://www.w3.org/1999/xlink"
	 x="0px" y="0px" viewBox="0 0 576 512" style="enable-background:new 0 0 576 512;" xml:space="preserve">
<style type="text/css">
	.icon--warning .st0{fill:#FFCC00;}
  .icon--warning .st1{fill:#212121;}
</style>
<g class="icon--warning">
	<path class="st0" d="M569.5,440L329.6,24c-18.4-32-64.7-32-83.2,0L6.5,440c-18.4,31.9,4.6,72,41.6,72h479.9
		C564.8,512,588,472,569.5,440z M288,448c-17.7,0-32-14.3-32-32s14.3-32,32-32s32,14.3,32,32S305.7,448,288,448z M326.2,209.6
		l-12.8,128c-0.8,8.2-7.7,14.4-15.9,14.4h-19c-8.2,0-15.1-6.2-15.9-14.4l-12.8-128c-0.9-8.8,5.5-16.6,14.3-17.5
		c0.5-0.1,1-0.1,1.5-0.1h44.6c8.8,0,16,7.2,16,16C326.3,208.5,326.3,209.1,326.2,209.6L326.2,209.6z"/>
	<path class="st1" d="M310.3,192h-44.6c-8.8,0-16,7.2-16,16c0,0.5,0,1.1,0.1,1.6l12.8,128c0.8,8.2,7.7,14.4,15.9,14.4h19
		c8.2,0,15.1-6.2,15.9-14.4l12.8-128c0.9-8.8-5.5-16.6-14.3-17.5C311.4,192,310.8,192,310.3,192z M288,384c-17.7,0-32,14.3-32,32
		s14.3,32,32,32s32-14.3,32-32S305.7,384,288,384z"/>
</g>
</svg>
